# Blender v2.77 (sub 0) OBJ File: 'argwitheyes.blend'
# www.blender.org
mtllib eyes.017.mtl
o eyes.017
v -0.013471 8.076525 -2.286546
v -0.013471 8.417667 -2.286546
v 0.286142 8.417667 -2.286546
v 0.286142 8.076675 -2.286550
v 0.286142 7.735532 -2.286550
v -0.013471 7.735532 -2.286550
v -0.313085 7.735532 -2.286550
v -0.612699 8.076675 -2.286550
v -0.313085 8.076675 -2.286550
v -0.313085 8.417667 -2.286546
v 0.585756 8.076525 -2.286546
v 0.619235 8.076521 -2.286550
v 0.297524 7.710379 -2.286550
v -0.013471 7.710379 -2.286550
v -0.324470 7.710379 -2.286550
v -0.646178 8.076679 -2.286550
v -0.324467 8.442822 -2.286546
v -0.013471 8.442822 -2.286546
v 0.297528 8.442822 -2.286546
vt 0.500000 0.437500
vt 0.500000 0.500000
vt 0.437500 0.500000
vt 0.437500 0.437500
vt 0.437500 0.250000
vt 0.500000 0.250000
vt 0.562500 0.250000
vt 0.625000 0.437500
vt 0.562500 0.437500
vt 0.562500 0.500000
vt 0.375000 0.437500
vt 0.000000 0.000000
vt 1.000000 0.000000
vt 1.000000 1.000000
vt 0.000000 1.000000
vt 0.000000 0.000000
vt 1.000000 0.000000
vt 1.000000 1.000000
vt 0.000000 1.000000
vt 0.000000 0.000000
vt 1.000000 0.000000
vt 1.000000 1.000000
vt 0.000000 1.000000
vt 0.000000 0.000000
vt 1.000000 0.000000
vt 1.000000 1.000000
vt 0.000000 1.000000
vt 0.000000 0.000000
vt 1.000000 0.000000
vt 1.000000 1.000000
vt 0.000000 1.000000
vt 0.000000 0.000000
vt 1.000000 0.000000
vt 1.000000 1.000000
vt 0.000000 1.000000
vt 0.000000 0.000000
vt 1.000000 0.000000
vt 1.000000 1.000000
vt 0.000000 1.000000
vt 0.000000 0.000000
vt 1.000000 0.000000
vt 1.000000 1.000000
vt 0.000000 1.000000
vn 0.000000 0.000000 -1.000000
vn -0.000100 0.000000 -1.000000
usemtl surfaceShader2SG
s 1
f 1/1/1 2/2/1 3/3/1 4/4/1
f 5/5/1 6/6/1 1/1/1 4/4/1
f 7/7/1 8/8/1 9/9/1
f 7/7/1 9/9/1 1/1/1 6/6/1
f 8/8/1 10/10/1 9/9/1
f 10/10/1 2/2/1 1/1/1 9/9/1
f 3/3/1 11/11/1 4/4/1
f 5/5/1 4/4/1 11/11/1
usemtl surfaceShader3SG
f 5/12/1 11/13/1 12/14/2 13/15/1
f 7/16/1 6/17/1 14/18/1 15/19/1
f 8/20/1 7/21/1 15/22/1 16/23/1
f 2/24/1 10/25/1 17/26/1 18/27/1
f 6/28/1 5/29/1 13/30/1 14/31/1
f 10/32/1 8/33/1 16/34/1 17/35/1
f 3/36/1 2/37/1 18/38/1 19/39/1
f 11/40/1 3/41/1 19/42/1 12/43/2
