# Blender v2.77 (sub 0) OBJ File: 'argwitheyes.blend'
# www.blender.org
mtllib eyes.003-2.mtl
o eyes.003
v 7.770363 13.370082 -0.313852
v 7.770363 13.711225 -0.313852
v 7.470749 13.711225 -0.313852
v 7.470749 13.370232 -0.313848
v 7.470749 13.029089 -0.313848
v 7.770363 13.029089 -0.313848
v 8.069977 13.029089 -0.313848
v 8.369591 13.370232 -0.313848
v 8.069977 13.370232 -0.313848
v 8.069977 13.711225 -0.313852
v 7.171135 13.370082 -0.313852
v 7.137656 13.370078 -0.313848
v 7.459367 13.003936 -0.313848
v 7.770363 13.003936 -0.313848
v 8.081363 13.003936 -0.313848
v 8.403070 13.370235 -0.313848
v 8.081359 13.736378 -0.313852
v 7.770363 13.736378 -0.313852
v 7.459364 13.736378 -0.313852
vt 0.500000 0.437500
vt 0.500000 0.500000
vt 0.437500 0.500000
vt 0.437500 0.437500
vt 0.437500 0.250000
vt 0.500000 0.250000
vt 0.562500 0.250000
vt 0.625000 0.437500
vt 0.562500 0.437500
vt 0.562500 0.500000
vt 0.375000 0.437500
vt 0.000000 0.000000
vt 1.000000 0.000000
vt 1.000000 1.000000
vt 0.000000 1.000000
vt 0.000000 0.000000
vt 1.000000 0.000000
vt 1.000000 1.000000
vt 0.000000 1.000000
vt 0.000000 0.000000
vt 1.000000 0.000000
vt 1.000000 1.000000
vt 0.000000 1.000000
vt 0.000000 0.000000
vt 1.000000 0.000000
vt 1.000000 1.000000
vt 0.000000 1.000000
vt 0.000000 0.000000
vt 1.000000 0.000000
vt 1.000000 1.000000
vt 0.000000 1.000000
vt 0.000000 0.000000
vt 1.000000 0.000000
vt 1.000000 1.000000
vt 0.000000 1.000000
vt 0.000000 0.000000
vt 1.000000 0.000000
vt 1.000000 1.000000
vt 0.000000 1.000000
vt 0.000000 0.000000
vt 1.000000 0.000000
vt 1.000000 1.000000
vt 0.000000 1.000000
vn 0.000000 0.000000 1.000000
vn 0.000100 0.000000 1.000000
usemtl surfaceShader2SG
s 1
f 1/1/1 2/2/1 3/3/1 4/4/1
f 5/5/1 6/6/1 1/1/1 4/4/1
f 7/7/1 8/8/1 9/9/1
f 7/7/1 9/9/1 1/1/1 6/6/1
f 8/8/1 10/10/1 9/9/1
f 10/10/1 2/2/1 1/1/1 9/9/1
f 3/3/1 11/11/1 4/4/1
f 5/5/1 4/4/1 11/11/1
usemtl surfaceShader3SG
f 5/12/1 11/13/1 12/14/2 13/15/1
f 7/16/1 6/17/1 14/18/1 15/19/1
f 8/20/1 7/21/1 15/22/1 16/23/1
f 2/24/1 10/25/1 17/26/1 18/27/1
f 6/28/1 5/29/1 13/30/1 14/31/1
f 10/32/1 8/33/1 16/34/1 17/35/1
f 3/36/1 2/37/1 18/38/1 19/39/1
f 11/40/1 3/41/1 19/42/1 12/43/2
